<?xml version="1.0" encoding="UTF-8" standalone="no"?>
<!DOCTYPE svg PUBLIC "-//W3C//DTD SVG 1.1//EN"
 "http://www.w3.org/Graphics/SVG/1.1/DTD/svg11.dtd">
<!-- Generated by graphviz version 2.43.0 (0)
 -->
<!-- Title: G Pages: 1 -->
<svg width="1767pt" height="911pt"
 viewBox="0.00 0.00 1767.00 911.22" xmlns="http://www.w3.org/2000/svg" xmlns:xlink="http://www.w3.org/1999/xlink">
<g id="graph0" class="graph" transform="scale(1 1) rotate(0) translate(4 907.22)">
<title>G</title>
<polygon fill="white" stroke="transparent" points="-4,4 -4,-907.22 1763,-907.22 1763,4 -4,4"/>
<g id="clust1" class="cluster">
<title>cluster_module.ec2</title>
<polygon fill="none" stroke="black" points="617.5,-683.22 617.5,-812.22 1679.5,-812.22 1679.5,-683.22 617.5,-683.22"/>
<text text-anchor="middle" x="1148.5" y="-797.02" font-family="sans-serif" font-size="14.00">module.ec2</text>
</g>
<g id="clust2" class="cluster">
<title>cluster_module.iam</title>
<polygon fill="none" stroke="black" points="222,-546.22 222,-675.22 932,-675.22 932,-546.22 222,-546.22"/>
<text text-anchor="middle" x="577" y="-660.02" font-family="sans-serif" font-size="14.00">module.iam</text>
</g>
<g id="clust3" class="cluster">
<title>cluster_module.nacl</title>
<polygon fill="none" stroke="black" points="1031,-316.22 1031,-661.22 1751,-661.22 1751,-316.22 1031,-316.22"/>
<text text-anchor="middle" x="1391" y="-646.02" font-family="sans-serif" font-size="14.00">module.nacl</text>
</g>
<g id="clust4" class="cluster">
<title>cluster_module.networks</title>
<polygon fill="none" stroke="black" points="201,-71.22 201,-308.22 1359,-308.22 1359,-71.22 201,-71.22"/>
<text text-anchor="middle" x="780" y="-293.02" font-family="sans-serif" font-size="14.00">module.networks</text>
</g>
<g id="clust5" class="cluster">
<title>cluster_module.security_groups</title>
<polygon fill="none" stroke="black" points="245,-820.22 245,-895.22 1293,-895.22 1293,-820.22 245,-820.22"/>
<text text-anchor="middle" x="769" y="-880.02" font-family="sans-serif" font-size="14.00">module.security_groups</text>
</g>
<g id="clust6" class="cluster">
<title>cluster_module.vpc</title>
<polygon fill="none" stroke="black" points="8,-173.22 8,-248.22 181,-248.22 181,-173.22 8,-173.22"/>
<text text-anchor="middle" x="94.5" y="-233.02" font-family="sans-serif" font-size="14.00">module.vpc</text>
</g>
<!-- module.ec2.data.aws_ami.ubuntu -->
<g id="node1" class="node">
<title>module.ec2.data.aws_ami.ubuntu</title>
<polygon fill="none" stroke="black" points="801,-727.22 643,-727.22 643,-691.22 801,-691.22 801,-727.22"/>
<text text-anchor="middle" x="722" y="-705.52" font-family="sans-serif" font-size="14.00">data.aws_ami.ubuntu</text>
</g>
<!-- module.ec2.aws_instance.bastion_host -->
<g id="node2" class="node">
<title>module.ec2.aws_instance.bastion_host</title>
<polygon fill="none" stroke="black" points="1251.5,-781.22 1059.5,-781.22 1059.5,-745.22 1251.5,-745.22 1251.5,-781.22"/>
<text text-anchor="middle" x="1155.5" y="-759.52" font-family="sans-serif" font-size="14.00">aws_instance.bastion_host</text>
</g>
<!-- module.ec2.aws_instance.bastion_host&#45;&gt;module.ec2.data.aws_ami.ubuntu -->
<g id="edge1" class="edge">
<title>module.ec2.aws_instance.bastion_host&#45;&gt;module.ec2.data.aws_ami.ubuntu</title>
<path fill="none" stroke="black" d="M1059.27,-751.31C985.2,-742.04 883.21,-729.27 811.03,-720.24"/>
<polygon fill="black" stroke="black" points="811.41,-716.76 801.05,-718.99 810.54,-723.71 811.41,-716.76"/>
</g>
<!-- module.ec2.aws_key_pair.host_pub_key -->
<g id="node4" class="node">
<title>module.ec2.aws_key_pair.host_pub_key</title>
<polygon fill="none" stroke="black" points="818.5,-781.22 625.5,-781.22 625.5,-745.22 818.5,-745.22 818.5,-781.22"/>
<text text-anchor="middle" x="722" y="-759.52" font-family="sans-serif" font-size="14.00">aws_key_pair.host_pub_key</text>
</g>
<!-- module.ec2.aws_instance.bastion_host&#45;&gt;module.ec2.aws_key_pair.host_pub_key -->
<g id="edge2" class="edge">
<title>module.ec2.aws_instance.bastion_host&#45;&gt;module.ec2.aws_key_pair.host_pub_key</title>
<path fill="none" stroke="black" d="M1059.27,-763.22C991.14,-763.22 899.41,-763.22 828.96,-763.22"/>
<polygon fill="black" stroke="black" points="828.73,-759.72 818.73,-763.22 828.73,-766.72 828.73,-759.72"/>
</g>
<!-- module.iam.aws_iam_instance_profile.bastion_ssm_profile_rs_school -->
<g id="node6" class="node">
<title>module.iam.aws_iam_instance_profile.bastion_ssm_profile_rs_school</title>
<polygon fill="none" stroke="black" points="913.5,-644.22 530.5,-644.22 530.5,-608.22 913.5,-608.22 913.5,-644.22"/>
<text text-anchor="middle" x="722" y="-622.52" font-family="sans-serif" font-size="14.00">aws_iam_instance_profile.bastion_ssm_profile_rs_school</text>
</g>
<!-- module.ec2.aws_instance.bastion_host&#45;&gt;module.iam.aws_iam_instance_profile.bastion_ssm_profile_rs_school -->
<g id="edge3" class="edge">
<title>module.ec2.aws_instance.bastion_host&#45;&gt;module.iam.aws_iam_instance_profile.bastion_ssm_profile_rs_school</title>
<path fill="none" stroke="black" d="M1059.37,-764.49C1025.42,-760.79 988.55,-751.6 960,-731.22 938.64,-715.97 952.69,-695.37 932,-679.22 914.2,-665.33 893.18,-655.04 871.45,-647.43"/>
<polygon fill="black" stroke="black" points="872.36,-644.05 861.77,-644.23 870.16,-650.69 872.36,-644.05"/>
</g>
<!-- module.networks.aws_subnet.public_subnets -->
<g id="node23" class="node">
<title>module.networks.aws_subnet.public_subnets</title>
<polygon fill="none" stroke="black" points="820.5,-277.22 623.5,-277.22 623.5,-241.22 820.5,-241.22 820.5,-277.22"/>
<text text-anchor="middle" x="722" y="-255.52" font-family="sans-serif" font-size="14.00">aws_subnet.public_subnets</text>
</g>
<!-- module.ec2.aws_instance.bastion_host&#45;&gt;module.networks.aws_subnet.public_subnets -->
<g id="edge4" class="edge">
<title>module.ec2.aws_instance.bastion_host&#45;&gt;module.networks.aws_subnet.public_subnets</title>
<path fill="none" stroke="black" d="M1059.38,-769.83C1023.7,-767.15 985.62,-757.26 960,-731.22 900.44,-670.7 964.41,-620.71 932,-542.22 887.73,-435 794.11,-331.11 748.73,-284.62"/>
<polygon fill="black" stroke="black" points="751.13,-282.07 741.62,-277.4 746.14,-286.98 751.13,-282.07"/>
</g>
<!-- module.security_groups.aws_security_group.bastion_host_sg -->
<g id="node26" class="node">
<title>module.security_groups.aws_security_group.bastion_host_sg</title>
<polygon fill="none" stroke="black" points="849.5,-864.22 594.5,-864.22 594.5,-828.22 849.5,-828.22 849.5,-864.22"/>
<text text-anchor="middle" x="722" y="-842.52" font-family="sans-serif" font-size="14.00">aws_security_group.bastion_host_sg</text>
</g>
<!-- module.ec2.aws_instance.bastion_host&#45;&gt;module.security_groups.aws_security_group.bastion_host_sg -->
<g id="edge5" class="edge">
<title>module.ec2.aws_instance.bastion_host&#45;&gt;module.security_groups.aws_security_group.bastion_host_sg</title>
<path fill="none" stroke="black" d="M1085.7,-781.33C1041.91,-792.42 983.88,-806.34 932,-816.22 908.66,-820.67 883.74,-824.79 859.54,-828.46"/>
<polygon fill="black" stroke="black" points="858.95,-825.01 849.58,-829.95 859.99,-831.93 858.95,-825.01"/>
</g>
<!-- module.ec2.aws_instance.private_ec2 -->
<g id="node3" class="node">
<title>module.ec2.aws_instance.private_ec2</title>
<polygon fill="none" stroke="black" points="1656.5,-781.22 1473.5,-781.22 1473.5,-745.22 1656.5,-745.22 1656.5,-781.22"/>
<text text-anchor="middle" x="1565" y="-759.52" font-family="sans-serif" font-size="14.00">aws_instance.private_ec2</text>
</g>
<!-- module.ec2.aws_instance.private_ec2&#45;&gt;module.ec2.aws_instance.bastion_host -->
<g id="edge6" class="edge">
<title>module.ec2.aws_instance.private_ec2&#45;&gt;module.ec2.aws_instance.bastion_host</title>
<path fill="none" stroke="black" d="M1473.31,-763.22C1410.75,-763.22 1327.4,-763.22 1261.89,-763.22"/>
<polygon fill="black" stroke="black" points="1261.53,-759.72 1251.53,-763.22 1261.53,-766.72 1261.53,-759.72"/>
</g>
<!-- module.networks.aws_subnet.private_subnets -->
<g id="node22" class="node">
<title>module.networks.aws_subnet.private_subnets</title>
<polygon fill="none" stroke="black" points="823.5,-223.22 620.5,-223.22 620.5,-187.22 823.5,-187.22 823.5,-223.22"/>
<text text-anchor="middle" x="722" y="-201.52" font-family="sans-serif" font-size="14.00">aws_subnet.private_subnets</text>
</g>
<!-- module.ec2.aws_instance.private_ec2&#45;&gt;module.networks.aws_subnet.private_subnets -->
<g id="edge7" class="edge">
<title>module.ec2.aws_instance.private_ec2&#45;&gt;module.networks.aws_subnet.private_subnets</title>
<path fill="none" stroke="black" d="M1473.49,-750.83C1437.83,-746.08 1396.51,-740.71 1359,-736.22 1270.45,-725.62 1021.57,-757.74 960,-693.22 889.14,-618.98 1002.07,-307.21 932,-232.22 907.11,-205.59 869.94,-195.6 833.82,-193.33"/>
<polygon fill="black" stroke="black" points="833.81,-189.82 823.66,-192.88 833.5,-196.82 833.81,-189.82"/>
</g>
<!-- module.security_groups.aws_security_group.private_hosts_sg -->
<g id="node27" class="node">
<title>module.security_groups.aws_security_group.private_hosts_sg</title>
<polygon fill="none" stroke="black" points="1285,-864.22 1026,-864.22 1026,-828.22 1285,-828.22 1285,-864.22"/>
<text text-anchor="middle" x="1155.5" y="-842.52" font-family="sans-serif" font-size="14.00">aws_security_group.private_hosts_sg</text>
</g>
<!-- module.ec2.aws_instance.private_ec2&#45;&gt;module.security_groups.aws_security_group.private_hosts_sg -->
<g id="edge8" class="edge">
<title>module.ec2.aws_instance.private_ec2&#45;&gt;module.security_groups.aws_security_group.private_hosts_sg</title>
<path fill="none" stroke="black" d="M1501.14,-781.32C1460.78,-792.48 1407.1,-806.47 1359,-816.22 1338.48,-820.38 1316.68,-824.22 1295.27,-827.66"/>
<polygon fill="black" stroke="black" points="1294.47,-824.24 1285.14,-829.26 1295.56,-831.15 1294.47,-824.24"/>
</g>
<!-- module.ec2.aws_route.default_via_bastion -->
<g id="node5" class="node">
<title>module.ec2.aws_route.default_via_bastion</title>
<polygon fill="none" stroke="black" points="1671.5,-727.22 1458.5,-727.22 1458.5,-691.22 1671.5,-691.22 1671.5,-727.22"/>
<text text-anchor="middle" x="1565" y="-705.52" font-family="sans-serif" font-size="14.00">aws_route.default_via_bastion</text>
</g>
<!-- module.ec2.aws_route.default_via_bastion&#45;&gt;module.ec2.aws_instance.bastion_host -->
<g id="edge9" class="edge">
<title>module.ec2.aws_route.default_via_bastion&#45;&gt;module.ec2.aws_instance.bastion_host</title>
<path fill="none" stroke="black" d="M1458.26,-723.24C1397.73,-731.26 1322.03,-741.29 1261.6,-749.3"/>
<polygon fill="black" stroke="black" points="1261.11,-745.83 1251.66,-750.61 1262.03,-752.77 1261.11,-745.83"/>
</g>
<!-- module.networks.aws_route_table.private_route_table -->
<g id="node18" class="node">
<title>module.networks.aws_route_table.private_route_table</title>
<polygon fill="none" stroke="black" points="849,-115.22 595,-115.22 595,-79.22 849,-79.22 849,-115.22"/>
<text text-anchor="middle" x="722" y="-93.52" font-family="sans-serif" font-size="14.00">aws_route_table.private_route_table</text>
</g>
<!-- module.ec2.aws_route.default_via_bastion&#45;&gt;module.networks.aws_route_table.private_route_table -->
<g id="edge10" class="edge">
<title>module.ec2.aws_route.default_via_bastion&#45;&gt;module.networks.aws_route_table.private_route_table</title>
<path fill="none" stroke="black" d="M1458.41,-700.82C1426.47,-698.33 1391.31,-695.62 1359,-693.22 1314.68,-689.94 991.14,-696.94 960,-665.22 917.83,-622.27 972.9,-168.39 932,-124.22 913.02,-103.72 886.76,-93.05 859.26,-88.17"/>
<polygon fill="black" stroke="black" points="859.49,-84.66 849.08,-86.62 858.44,-91.58 859.49,-84.66"/>
</g>
<!-- module.iam.aws_iam_role.ssm_role_rs_school -->
<g id="node7" class="node">
<title>module.iam.aws_iam_role.ssm_role_rs_school</title>
<polygon fill="none" stroke="black" points="463,-617.22 230,-617.22 230,-581.22 463,-581.22 463,-617.22"/>
<text text-anchor="middle" x="346.5" y="-595.52" font-family="sans-serif" font-size="14.00">aws_iam_role.ssm_role_rs_school</text>
</g>
<!-- module.iam.aws_iam_instance_profile.bastion_ssm_profile_rs_school&#45;&gt;module.iam.aws_iam_role.ssm_role_rs_school -->
<g id="edge11" class="edge">
<title>module.iam.aws_iam_instance_profile.bastion_ssm_profile_rs_school&#45;&gt;module.iam.aws_iam_role.ssm_role_rs_school</title>
<path fill="none" stroke="black" d="M530.42,-612.45C511.07,-611.05 491.78,-609.65 473.37,-608.32"/>
<polygon fill="black" stroke="black" points="473.47,-604.82 463.24,-607.59 472.97,-611.8 473.47,-604.82"/>
</g>
<!-- module.iam.aws_iam_role_policy_attachment.ssm_role_policy_rs_school -->
<g id="node8" class="node">
<title>module.iam.aws_iam_role_policy_attachment.ssm_role_policy_rs_school</title>
<polygon fill="none" stroke="black" points="924,-590.22 520,-590.22 520,-554.22 924,-554.22 924,-590.22"/>
<text text-anchor="middle" x="722" y="-568.52" font-family="sans-serif" font-size="14.00">aws_iam_role_policy_attachment.ssm_role_policy_rs_school</text>
</g>
<!-- module.iam.aws_iam_role_policy_attachment.ssm_role_policy_rs_school&#45;&gt;module.iam.aws_iam_role.ssm_role_rs_school -->
<g id="edge12" class="edge">
<title>module.iam.aws_iam_role_policy_attachment.ssm_role_policy_rs_school&#45;&gt;module.iam.aws_iam_role.ssm_role_rs_school</title>
<path fill="none" stroke="black" d="M519.76,-586.77C504.07,-587.91 488.51,-589.03 473.54,-590.11"/>
<polygon fill="black" stroke="black" points="472.99,-586.64 463.27,-590.85 473.5,-593.62 472.99,-586.64"/>
</g>
<!-- module.nacl.aws_network_acl.http_https_nacl -->
<g id="node9" class="node">
<title>module.nacl.aws_network_acl.http_https_nacl</title>
<polygon fill="none" stroke="black" points="1272,-468.22 1039,-468.22 1039,-432.22 1272,-432.22 1272,-468.22"/>
<text text-anchor="middle" x="1155.5" y="-446.52" font-family="sans-serif" font-size="14.00">aws_network_acl.http_https_nacl</text>
</g>
<!-- module.nacl.aws_network_acl.http_https_nacl&#45;&gt;module.networks.aws_subnet.public_subnets -->
<g id="edge13" class="edge">
<title>module.nacl.aws_network_acl.http_https_nacl&#45;&gt;module.networks.aws_subnet.public_subnets</title>
<path fill="none" stroke="black" d="M1113.52,-432.08C1034.03,-396.9 859.19,-319.51 773.02,-281.36"/>
<polygon fill="black" stroke="black" points="774.27,-278.09 763.71,-277.24 771.44,-284.49 774.27,-278.09"/>
</g>
<!-- module.nacl.aws_network_acl_rule.allow_all_inbound -->
<g id="node10" class="node">
<title>module.nacl.aws_network_acl_rule.allow_all_inbound</title>
<polygon fill="none" stroke="black" points="1705.5,-414.22 1424.5,-414.22 1424.5,-378.22 1705.5,-378.22 1705.5,-414.22"/>
<text text-anchor="middle" x="1565" y="-392.52" font-family="sans-serif" font-size="14.00">aws_network_acl_rule.allow_all_inbound</text>
</g>
<!-- module.nacl.aws_network_acl_rule.allow_all_inbound&#45;&gt;module.nacl.aws_network_acl.http_https_nacl -->
<g id="edge14" class="edge">
<title>module.nacl.aws_network_acl_rule.allow_all_inbound&#45;&gt;module.nacl.aws_network_acl.http_https_nacl</title>
<path fill="none" stroke="black" d="M1428.03,-414.24C1380.91,-420.49 1328.34,-427.45 1282.1,-433.58"/>
<polygon fill="black" stroke="black" points="1281.48,-430.13 1272.03,-434.91 1282.4,-437.07 1281.48,-430.13"/>
</g>
<!-- module.nacl.aws_network_acl_rule.allow_all_outbound -->
<g id="node11" class="node">
<title>module.nacl.aws_network_acl_rule.allow_all_outbound</title>
<polygon fill="none" stroke="black" points="1710.5,-360.22 1419.5,-360.22 1419.5,-324.22 1710.5,-324.22 1710.5,-360.22"/>
<text text-anchor="middle" x="1565" y="-338.52" font-family="sans-serif" font-size="14.00">aws_network_acl_rule.allow_all_outbound</text>
</g>
<!-- module.nacl.aws_network_acl_rule.allow_all_outbound&#45;&gt;module.nacl.aws_network_acl.http_https_nacl -->
<g id="edge15" class="edge">
<title>module.nacl.aws_network_acl_rule.allow_all_outbound&#45;&gt;module.nacl.aws_network_acl.http_https_nacl</title>
<path fill="none" stroke="black" d="M1428.19,-360.29C1414.21,-362.94 1400.27,-365.91 1387,-369.22 1324.76,-384.76 1255.61,-410.21 1209.44,-428.44"/>
<polygon fill="black" stroke="black" points="1207.94,-425.27 1199.94,-432.21 1210.53,-431.77 1207.94,-425.27"/>
</g>
<!-- module.nacl.aws_network_acl_rule.block_http_for_cidrs_egress -->
<g id="node12" class="node">
<title>module.nacl.aws_network_acl_rule.block_http_for_cidrs_egress</title>
<polygon fill="none" stroke="black" points="1737,-630.22 1393,-630.22 1393,-594.22 1737,-594.22 1737,-630.22"/>
<text text-anchor="middle" x="1565" y="-608.52" font-family="sans-serif" font-size="14.00">aws_network_acl_rule.block_http_for_cidrs_egress</text>
</g>
<!-- module.nacl.aws_network_acl_rule.block_http_for_cidrs_egress&#45;&gt;module.nacl.aws_network_acl.http_https_nacl -->
<g id="edge16" class="edge">
<title>module.nacl.aws_network_acl_rule.block_http_for_cidrs_egress&#45;&gt;module.nacl.aws_network_acl.http_https_nacl</title>
<path fill="none" stroke="black" d="M1416.61,-594.14C1406.48,-591.55 1396.52,-588.6 1387,-585.22 1310.73,-558.19 1231.35,-505.3 1188.53,-474.35"/>
<polygon fill="black" stroke="black" points="1190.36,-471.35 1180.22,-468.28 1186.23,-477 1190.36,-471.35"/>
</g>
<!-- module.nacl.aws_network_acl_rule.block_http_for_cidrs_ingress -->
<g id="node13" class="node">
<title>module.nacl.aws_network_acl_rule.block_http_for_cidrs_ingress</title>
<polygon fill="none" stroke="black" points="1739.5,-576.22 1390.5,-576.22 1390.5,-540.22 1739.5,-540.22 1739.5,-576.22"/>
<text text-anchor="middle" x="1565" y="-554.52" font-family="sans-serif" font-size="14.00">aws_network_acl_rule.block_http_for_cidrs_ingress</text>
</g>
<!-- module.nacl.aws_network_acl_rule.block_http_for_cidrs_ingress&#45;&gt;module.nacl.aws_network_acl.http_https_nacl -->
<g id="edge17" class="edge">
<title>module.nacl.aws_network_acl_rule.block_http_for_cidrs_ingress&#45;&gt;module.nacl.aws_network_acl.http_https_nacl</title>
<path fill="none" stroke="black" d="M1428.19,-540.16C1414.21,-537.51 1400.27,-534.54 1387,-531.22 1324.76,-515.68 1255.61,-490.23 1209.44,-472.01"/>
<polygon fill="black" stroke="black" points="1210.53,-468.68 1199.94,-468.23 1207.94,-475.18 1210.53,-468.68"/>
</g>
<!-- module.nacl.aws_network_acl_rule.block_https_for_cidrs_egress -->
<g id="node14" class="node">
<title>module.nacl.aws_network_acl_rule.block_https_for_cidrs_egress</title>
<polygon fill="none" stroke="black" points="1740.5,-522.22 1389.5,-522.22 1389.5,-486.22 1740.5,-486.22 1740.5,-522.22"/>
<text text-anchor="middle" x="1565" y="-500.52" font-family="sans-serif" font-size="14.00">aws_network_acl_rule.block_https_for_cidrs_egress</text>
</g>
<!-- module.nacl.aws_network_acl_rule.block_https_for_cidrs_egress&#45;&gt;module.nacl.aws_network_acl.http_https_nacl -->
<g id="edge18" class="edge">
<title>module.nacl.aws_network_acl_rule.block_https_for_cidrs_egress&#45;&gt;module.nacl.aws_network_acl.http_https_nacl</title>
<path fill="none" stroke="black" d="M1428.03,-486.2C1380.91,-479.96 1328.34,-472.99 1282.1,-466.87"/>
<polygon fill="black" stroke="black" points="1282.4,-463.38 1272.03,-465.53 1281.48,-470.32 1282.4,-463.38"/>
</g>
<!-- module.nacl.aws_network_acl_rule.block_https_for_cidrs_ingress -->
<g id="node15" class="node">
<title>module.nacl.aws_network_acl_rule.block_https_for_cidrs_ingress</title>
<polygon fill="none" stroke="black" points="1743,-468.22 1387,-468.22 1387,-432.22 1743,-432.22 1743,-468.22"/>
<text text-anchor="middle" x="1565" y="-446.52" font-family="sans-serif" font-size="14.00">aws_network_acl_rule.block_https_for_cidrs_ingress</text>
</g>
<!-- module.nacl.aws_network_acl_rule.block_https_for_cidrs_ingress&#45;&gt;module.nacl.aws_network_acl.http_https_nacl -->
<g id="edge19" class="edge">
<title>module.nacl.aws_network_acl_rule.block_https_for_cidrs_ingress&#45;&gt;module.nacl.aws_network_acl.http_https_nacl</title>
<path fill="none" stroke="black" d="M1386.75,-450.22C1351.54,-450.22 1315.26,-450.22 1282.21,-450.22"/>
<polygon fill="black" stroke="black" points="1282.06,-446.72 1272.06,-450.22 1282.06,-453.72 1282.06,-446.72"/>
</g>
<!-- module.networks.data.aws_availability_zones.current_azs -->
<g id="node16" class="node">
<title>module.networks.data.aws_availability_zones.current_azs</title>
<polygon fill="none" stroke="black" points="484,-221.22 209,-221.22 209,-185.22 484,-185.22 484,-221.22"/>
<text text-anchor="middle" x="346.5" y="-199.52" font-family="sans-serif" font-size="14.00">data.aws_availability_zones.current_azs</text>
</g>
<!-- module.networks.aws_internet_gateway.igw_rs_school -->
<g id="node17" class="node">
<title>module.networks.aws_internet_gateway.igw_rs_school</title>
<polygon fill="none" stroke="black" points="475,-167.22 218,-167.22 218,-131.22 475,-131.22 475,-167.22"/>
<text text-anchor="middle" x="346.5" y="-145.52" font-family="sans-serif" font-size="14.00">aws_internet_gateway.igw_rs_school</text>
</g>
<!-- module.vpc.aws_vpc.rsschool_vpc -->
<g id="node28" class="node">
<title>module.vpc.aws_vpc.rsschool_vpc</title>
<polygon fill="none" stroke="black" points="173,-217.22 16,-217.22 16,-181.22 173,-181.22 173,-217.22"/>
<text text-anchor="middle" x="94.5" y="-195.52" font-family="sans-serif" font-size="14.00">aws_vpc.rsschool_vpc</text>
</g>
<!-- module.networks.aws_internet_gateway.igw_rs_school&#45;&gt;module.vpc.aws_vpc.rsschool_vpc -->
<g id="edge20" class="edge">
<title>module.networks.aws_internet_gateway.igw_rs_school&#45;&gt;module.vpc.aws_vpc.rsschool_vpc</title>
<path fill="none" stroke="black" d="M246.71,-167.28C231.39,-170.19 215.76,-173.24 201,-176.22 195.23,-177.39 189.29,-178.62 183.31,-179.87"/>
<polygon fill="black" stroke="black" points="182.29,-176.51 173.22,-182 183.73,-183.36 182.29,-176.51"/>
</g>
<!-- module.networks.aws_route_table.private_route_table&#45;&gt;module.vpc.aws_vpc.rsschool_vpc -->
<g id="edge21" class="edge">
<title>module.networks.aws_route_table.private_route_table&#45;&gt;module.vpc.aws_vpc.rsschool_vpc</title>
<path fill="none" stroke="black" d="M594.74,-83.43C486.97,-76.27 329.48,-76.88 201,-122.22 170.23,-133.08 140.72,-156.06 120.77,-174.11"/>
<polygon fill="black" stroke="black" points="118.3,-171.62 113.35,-180.99 123.06,-176.75 118.3,-171.62"/>
</g>
<!-- module.networks.aws_route_table.public_route_table -->
<g id="node19" class="node">
<title>module.networks.aws_route_table.public_route_table</title>
<polygon fill="none" stroke="black" points="846,-169.22 598,-169.22 598,-133.22 846,-133.22 846,-169.22"/>
<text text-anchor="middle" x="722" y="-147.52" font-family="sans-serif" font-size="14.00">aws_route_table.public_route_table</text>
</g>
<!-- module.networks.aws_route_table.public_route_table&#45;&gt;module.networks.aws_internet_gateway.igw_rs_school -->
<g id="edge22" class="edge">
<title>module.networks.aws_route_table.public_route_table&#45;&gt;module.networks.aws_internet_gateway.igw_rs_school</title>
<path fill="none" stroke="black" d="M597.93,-150.56C561.89,-150.37 522.25,-150.16 485.36,-149.96"/>
<polygon fill="black" stroke="black" points="485.05,-146.46 475.03,-149.91 485.01,-153.46 485.05,-146.46"/>
</g>
<!-- module.networks.aws_route_table_association.private_subnet_associations -->
<g id="node20" class="node">
<title>module.networks.aws_route_table_association.private_subnet_associations</title>
<polygon fill="none" stroke="black" points="1351,-196.22 960,-196.22 960,-160.22 1351,-160.22 1351,-196.22"/>
<text text-anchor="middle" x="1155.5" y="-174.52" font-family="sans-serif" font-size="14.00">aws_route_table_association.private_subnet_associations</text>
</g>
<!-- module.networks.aws_route_table_association.private_subnet_associations&#45;&gt;module.networks.aws_route_table.private_route_table -->
<g id="edge23" class="edge">
<title>module.networks.aws_route_table_association.private_subnet_associations&#45;&gt;module.networks.aws_route_table.private_route_table</title>
<path fill="none" stroke="black" d="M1088.22,-160.12C1044.19,-148.59 984.96,-134.04 932,-124.22 908.52,-119.87 883.44,-115.98 859.08,-112.61"/>
<polygon fill="black" stroke="black" points="859.45,-109.12 849.06,-111.24 858.5,-116.06 859.45,-109.12"/>
</g>
<!-- module.networks.aws_route_table_association.private_subnet_associations&#45;&gt;module.networks.aws_subnet.private_subnets -->
<g id="edge24" class="edge">
<title>module.networks.aws_route_table_association.private_subnet_associations&#45;&gt;module.networks.aws_subnet.private_subnets</title>
<path fill="none" stroke="black" d="M959.89,-190.4C916.7,-193.1 872.37,-195.88 833.91,-198.28"/>
<polygon fill="black" stroke="black" points="833.51,-194.8 823.75,-198.92 833.95,-201.79 833.51,-194.8"/>
</g>
<!-- module.networks.aws_route_table_association.public_subnet_associations -->
<g id="node21" class="node">
<title>module.networks.aws_route_table_association.public_subnet_associations</title>
<polygon fill="none" stroke="black" points="1348,-263.22 963,-263.22 963,-227.22 1348,-227.22 1348,-263.22"/>
<text text-anchor="middle" x="1155.5" y="-241.52" font-family="sans-serif" font-size="14.00">aws_route_table_association.public_subnet_associations</text>
</g>
<!-- module.networks.aws_route_table_association.public_subnet_associations&#45;&gt;module.networks.aws_route_table.public_route_table -->
<g id="edge25" class="edge">
<title>module.networks.aws_route_table_association.public_subnet_associations&#45;&gt;module.networks.aws_route_table.public_route_table</title>
<path fill="none" stroke="black" d="M1017.17,-227.18C997.35,-221.7 977.69,-214.55 960,-205.22 944.71,-197.16 947.58,-185.71 932,-178.22 908.61,-166.98 882.13,-159.9 856.07,-155.53"/>
<polygon fill="black" stroke="black" points="856.53,-152.06 846.12,-153.99 855.46,-158.98 856.53,-152.06"/>
</g>
<!-- module.networks.aws_route_table_association.public_subnet_associations&#45;&gt;module.networks.aws_subnet.public_subnets -->
<g id="edge26" class="edge">
<title>module.networks.aws_route_table_association.public_subnet_associations&#45;&gt;module.networks.aws_subnet.public_subnets</title>
<path fill="none" stroke="black" d="M962.72,-251.45C917.39,-252.92 870.62,-254.43 830.56,-255.73"/>
<polygon fill="black" stroke="black" points="830.41,-252.24 820.53,-256.06 830.64,-259.23 830.41,-252.24"/>
</g>
<!-- module.networks.aws_subnet.private_subnets&#45;&gt;module.networks.data.aws_availability_zones.current_azs -->
<g id="edge27" class="edge">
<title>module.networks.aws_subnet.private_subnets&#45;&gt;module.networks.data.aws_availability_zones.current_azs</title>
<path fill="none" stroke="black" d="M620.42,-204.68C581.61,-204.48 536.45,-204.24 494.16,-204.01"/>
<polygon fill="black" stroke="black" points="494.07,-200.51 484.05,-203.95 494.03,-207.51 494.07,-200.51"/>
</g>
<!-- module.networks.aws_subnet.private_subnets&#45;&gt;module.vpc.aws_vpc.rsschool_vpc -->
<g id="edge28" class="edge">
<title>module.networks.aws_subnet.private_subnets&#45;&gt;module.vpc.aws_vpc.rsschool_vpc</title>
<path fill="none" stroke="black" d="M620.28,-218.21C578.23,-223.02 528.83,-227.87 484,-230.22 358.4,-236.83 325.5,-248.14 201,-230.22 186.18,-228.09 170.55,-224.36 155.98,-220.2"/>
<polygon fill="black" stroke="black" points="156.68,-216.76 146.09,-217.27 154.69,-223.47 156.68,-216.76"/>
</g>
<!-- module.networks.aws_subnet.public_subnets&#45;&gt;module.networks.data.aws_availability_zones.current_azs -->
<g id="edge29" class="edge">
<title>module.networks.aws_subnet.public_subnets&#45;&gt;module.networks.data.aws_availability_zones.current_azs</title>
<path fill="none" stroke="black" d="M623.27,-246.76C590.42,-242.39 553.6,-237.3 520,-232.22 501.08,-229.36 481.02,-226.15 461.53,-222.94"/>
<polygon fill="black" stroke="black" points="461.84,-219.44 451.4,-221.26 460.69,-226.35 461.84,-219.44"/>
</g>
<!-- module.networks.aws_subnet.public_subnets&#45;&gt;module.vpc.aws_vpc.rsschool_vpc -->
<g id="edge30" class="edge">
<title>module.networks.aws_subnet.public_subnets&#45;&gt;module.vpc.aws_vpc.rsschool_vpc</title>
<path fill="none" stroke="black" d="M623.2,-268.99C517.57,-276.81 345.04,-281.64 201,-248.22 178.01,-242.89 154.02,-232.21 134.74,-222.18"/>
<polygon fill="black" stroke="black" points="136.14,-218.97 125.67,-217.34 132.84,-225.14 136.14,-218.97"/>
</g>
<!-- module.networks.aws_vpc_endpoint.ssm -->
<g id="node24" class="node">
<title>module.networks.aws_vpc_endpoint.ssm</title>
<polygon fill="none" stroke="black" points="1238.5,-115.22 1072.5,-115.22 1072.5,-79.22 1238.5,-79.22 1238.5,-115.22"/>
<text text-anchor="middle" x="1155.5" y="-93.52" font-family="sans-serif" font-size="14.00">aws_vpc_endpoint.ssm</text>
</g>
<!-- module.networks.aws_vpc_endpoint.ssm&#45;&gt;module.vpc.aws_vpc.rsschool_vpc -->
<g id="edge31" class="edge">
<title>module.networks.aws_vpc_endpoint.ssm&#45;&gt;module.vpc.aws_vpc.rsschool_vpc</title>
<path fill="none" stroke="black" d="M1097.7,-79.21C944.14,-33.88 511.37,71.18 201,-75.22 158.33,-95.35 126.45,-141.96 109.43,-171.95"/>
<polygon fill="black" stroke="black" points="106.18,-170.6 104.43,-181.05 112.31,-173.97 106.18,-170.6"/>
</g>
<!-- module.security_groups.data.aws_vpc.current_VPC -->
<g id="node25" class="node">
<title>module.security_groups.data.aws_vpc.current_VPC</title>
<polygon fill="none" stroke="black" points="440,-864.22 253,-864.22 253,-828.22 440,-828.22 440,-864.22"/>
<text text-anchor="middle" x="346.5" y="-842.52" font-family="sans-serif" font-size="14.00">data.aws_vpc.current_VPC</text>
</g>
<!-- module.security_groups.data.aws_vpc.current_VPC&#45;&gt;module.vpc.aws_vpc.rsschool_vpc -->
<g id="edge32" class="edge">
<title>module.security_groups.data.aws_vpc.current_VPC&#45;&gt;module.vpc.aws_vpc.rsschool_vpc</title>
<path fill="none" stroke="black" d="M324.1,-828.06C292.12,-799.69 232.28,-741.6 201,-679.22 121.71,-521.11 101.65,-304.31 96.89,-227.56"/>
<polygon fill="black" stroke="black" points="100.37,-227.05 96.3,-217.27 93.38,-227.46 100.37,-227.05"/>
</g>
<!-- module.security_groups.aws_security_group.bastion_host_sg&#45;&gt;module.security_groups.data.aws_vpc.current_VPC -->
<g id="edge33" class="edge">
<title>module.security_groups.aws_security_group.bastion_host_sg&#45;&gt;module.security_groups.data.aws_vpc.current_VPC</title>
<path fill="none" stroke="black" d="M594.29,-846.22C547.38,-846.22 494.82,-846.22 450.29,-846.22"/>
<polygon fill="black" stroke="black" points="450.04,-842.72 440.04,-846.22 450.04,-849.72 450.04,-842.72"/>
</g>
<!-- module.security_groups.aws_security_group.private_hosts_sg&#45;&gt;module.security_groups.aws_security_group.bastion_host_sg -->
<g id="edge34" class="edge">
<title>module.security_groups.aws_security_group.private_hosts_sg&#45;&gt;module.security_groups.aws_security_group.bastion_host_sg</title>
<path fill="none" stroke="black" d="M1025.91,-846.22C973.53,-846.22 912.9,-846.22 859.71,-846.22"/>
<polygon fill="black" stroke="black" points="859.52,-842.72 849.52,-846.22 859.52,-849.72 859.52,-842.72"/>
</g>
</g>
</svg>
